<svg width="233" height="32" viewBox="0 0 233 32" fill="none" xmlns="http://www.w3.org/2000/svg">
<path d="M232.796 0.454529V31H227.218L213.929 11.7748H213.705V31H207.247V0.454529H212.915L226.1 19.6648H226.368V0.454529H232.796Z" fill="#1E1E1E"/>
<path d="M196.39 10.3281C196.182 9.60227 195.888 8.96093 195.51 8.40411C195.133 7.83735 194.67 7.36008 194.123 6.9723C193.586 6.57457 192.97 6.2713 192.274 6.0625C191.588 5.85369 190.827 5.74929 189.992 5.74929C188.431 5.74929 187.059 6.13707 185.876 6.91263C184.702 7.6882 183.787 8.81676 183.131 10.2983C182.475 11.7699 182.147 13.5696 182.147 15.6974C182.147 17.8253 182.47 19.6349 183.116 21.1264C183.763 22.6179 184.677 23.7564 185.861 24.5419C187.044 25.3175 188.441 25.7053 190.052 25.7053C191.513 25.7053 192.761 25.4467 193.795 24.9297C194.839 24.4027 195.635 23.6619 196.182 22.7074C196.738 21.7528 197.017 20.6243 197.017 19.3217L198.329 19.5156H190.454V14.6534H203.236V18.5014C203.236 21.1861 202.67 23.4929 201.536 25.4219C200.403 27.3409 198.841 28.8224 196.853 29.8665C194.864 30.9006 192.587 31.4176 190.022 31.4176C187.158 31.4176 184.643 30.7862 182.475 29.5234C180.307 28.2507 178.617 26.446 177.404 24.1094C176.201 21.7628 175.599 18.9787 175.599 15.7571C175.599 13.2812 175.957 11.0739 176.673 9.13494C177.399 7.18607 178.413 5.53551 179.716 4.18323C181.018 2.83096 182.535 1.80184 184.265 1.09587C185.995 0.389909 187.869 0.0369263 189.888 0.0369263C191.618 0.0369263 193.228 0.290477 194.72 0.79758C196.211 1.29474 197.534 2.0007 198.687 2.91548C199.851 3.83025 200.8 4.91903 201.536 6.18181C202.272 7.43465 202.744 8.81676 202.953 10.3281H196.39Z" fill="#1E1E1E"/>
<path d="M171.663 0.454529V31H165.205V0.454529H171.663Z" fill="#1E1E1E"/>
<path d="M155.094 9.23934C154.974 8.03622 154.462 7.10156 153.557 6.43536C152.652 5.76917 151.424 5.43607 149.873 5.43607C148.819 5.43607 147.929 5.58522 147.204 5.88352C146.478 6.17187 145.921 6.57457 145.533 7.09161C145.155 7.60866 144.966 8.19531 144.966 8.85156C144.946 9.39843 145.061 9.87571 145.309 10.2834C145.568 10.691 145.921 11.044 146.368 11.3423C146.816 11.6307 147.333 11.8842 147.919 12.103C148.506 12.3118 149.133 12.4908 149.799 12.6399L152.543 13.2962C153.875 13.5945 155.098 13.9922 156.212 14.4893C157.326 14.9865 158.29 15.598 159.106 16.3239C159.921 17.0497 160.552 17.9048 161 18.8892C161.457 19.8736 161.691 21.0021 161.701 22.2749C161.691 24.1442 161.214 25.7649 160.269 27.1371C159.334 28.4993 157.982 29.5582 156.212 30.3139C154.452 31.0597 152.329 31.4325 149.844 31.4325C147.378 31.4325 145.23 31.0547 143.4 30.299C141.581 29.5433 140.159 28.4247 139.135 26.9432C138.12 25.4517 137.589 23.6072 137.539 21.4098H143.788C143.858 22.4339 144.151 23.2891 144.668 23.9751C145.195 24.6513 145.896 25.1633 146.771 25.5114C147.656 25.8494 148.655 26.0185 149.769 26.0185C150.863 26.0185 151.812 25.8594 152.618 25.5412C153.433 25.223 154.064 24.7805 154.512 24.2138C154.959 23.647 155.183 22.9957 155.183 22.2599C155.183 21.5739 154.979 20.9972 154.571 20.5298C154.174 20.0625 153.587 19.6648 152.812 19.3366C152.046 19.0085 151.106 18.7102 149.993 18.4418L146.667 17.6065C144.091 16.9801 142.058 16.0007 140.567 14.6683C139.075 13.3359 138.334 11.5412 138.344 9.28408C138.334 7.43465 138.826 5.81889 139.821 4.43679C140.825 3.05468 142.202 1.97585 143.952 1.20028C145.702 0.42471 147.691 0.0369263 149.918 0.0369263C152.185 0.0369263 154.164 0.42471 155.854 1.20028C157.554 1.97585 158.877 3.05468 159.821 4.43679C160.766 5.81889 161.253 7.41974 161.283 9.23934H155.094Z" fill="#1E1E1E"/>
<path d="M113.646 31V0.454529H134.229V5.7791H120.104V13.0575H133.17V18.3821H120.104V25.6754H134.288V31H113.646Z" fill="#1E1E1E"/>
<path d="M94.7579 31H83.9297V0.454529H94.8474C97.9198 0.454529 100.565 1.06604 102.782 2.28905C104.999 3.50211 106.705 5.24714 107.898 7.52413C109.101 9.80112 109.702 12.5256 109.702 15.6974C109.702 18.8792 109.101 21.6136 107.898 23.9006C106.705 26.1875 104.989 27.9425 102.752 29.1655C100.525 30.3885 97.8601 31 94.7579 31ZM90.3878 25.4666H94.4894C96.3985 25.4666 98.0043 25.1285 99.3069 24.4524C100.619 23.7663 101.604 22.7074 102.26 21.2756C102.926 19.8338 103.259 17.9744 103.259 15.6974C103.259 13.4403 102.926 11.5959 102.26 10.164C101.604 8.73223 100.624 7.67825 99.3218 7.00211C98.0192 6.32598 96.4134 5.98791 94.5043 5.98791H90.3878V25.4666Z" fill="#1E1E1E"/>
<path d="M56.1605 31H45.3324V0.454529H56.25C59.3225 0.454529 61.9674 1.06604 64.1847 2.28905C66.402 3.50211 68.1073 5.24714 69.3004 7.52413C70.5036 9.80112 71.1051 12.5256 71.1051 15.6974C71.1051 18.8792 70.5036 21.6136 69.3004 23.9006C68.1073 26.1875 66.3921 27.9425 64.1549 29.1655C61.9276 30.3885 59.2628 31 56.1605 31ZM51.7905 25.4666H55.8921C57.8012 25.4666 59.407 25.1285 60.7095 24.4524C62.022 23.7663 63.0064 22.7074 63.6627 21.2756C64.3289 19.8338 64.662 17.9744 64.662 15.6974C64.662 13.4403 64.3289 11.5959 63.6627 10.164C63.0064 8.73223 62.027 7.67825 60.7245 7.00211C59.4219 6.32598 57.8161 5.98791 55.907 5.98791H51.7905V25.4666Z" fill="#1E1E1E"/>
<path d="M9.53054 31L0.790482 0.454529H7.84517L12.9013 21.6783H13.1548L18.733 0.454529H24.7734L30.3366 21.723H30.6051L35.6612 0.454529H42.7159L33.9759 31H27.6818L21.8651 11.0291H21.6264L15.8246 31H9.53054Z" fill="#1E1E1E"/>
</svg>
